<svg xmlns="http://www.w3.org/2000/svg" viewBox="0 0 1300 850" font-family="Segoe UI, Helvetica Neue, Arial, sans-serif">
  <defs>
    <linearGradient id="bgGrad" x1="0%" y1="0%" x2="100%" y2="100%">
      <stop offset="0%" style="stop-color:#0f1419"/>
      <stop offset="100%" style="stop-color:#1a2332"/>
    </linearGradient>
    
    <linearGradient id="profilesGrad" x1="0%" y1="0%" x2="100%" y2="100%">
      <stop offset="0%" style="stop-color:#8b5cf6"/>
      <stop offset="100%" style="stop-color:#6d28d9"/>
    </linearGradient>
    
    <linearGradient id="jobsGrad" x1="0%" y1="0%" x2="100%" y2="100%">
      <stop offset="0%" style="stop-color:#3b82f6"/>
      <stop offset="100%" style="stop-color:#1d4ed8"/>
    </linearGradient>
    
    <linearGradient id="applicationsGrad" x1="0%" y1="0%" x2="100%" y2="100%">
      <stop offset="0%" style="stop-color:#10b981"/>
      <stop offset="100%" style="stop-color:#059669"/>
    </linearGradient>
    
    <linearGradient id="resumesGrad" x1="0%" y1="0%" x2="100%" y2="100%">
      <stop offset="0%" style="stop-color:#f59e0b"/>
      <stop offset="100%" style="stop-color:#d97706"/>
    </linearGradient>
    
    <linearGradient id="savedJobsGrad" x1="0%" y1="0%" x2="100%" y2="100%">
      <stop offset="0%" style="stop-color:#ec4899"/>
      <stop offset="100%" style="stop-color:#be185d"/>
    </linearGradient>
    
    <linearGradient id="skillsGrad" x1="0%" y1="0%" x2="100%" y2="100%">
      <stop offset="0%" style="stop-color:#06b6d4"/>
      <stop offset="100%" style="stop-color:#0891b2"/>
    </linearGradient>
    
    <linearGradient id="viewsGrad" x1="0%" y1="0%" x2="100%" y2="100%">
      <stop offset="0%" style="stop-color:#ef4444"/>
      <stop offset="100%" style="stop-color:#dc2626"/>
    </linearGradient>
    
    <filter id="dropShadow" x="-20%" y="-20%" width="140%" height="140%">
      <feDropShadow dx="0" dy="4" stdDeviation="6" flood-color="#000" flood-opacity="0.4"/>
    </filter>
  </defs>
  
  <rect width="1300" height="850" fill="url(#bgGrad)"/>
  
  <text x="650" y="40" text-anchor="middle" fill="#f8fafc" font-size="24" font-weight="700" letter-spacing="1">ENTITY-RELATIONSHIP DIAGRAM</text>
  <text x="650" y="65" text-anchor="middle" fill="#94a3b8" font-size="12">Database Schema with Table Relationships and Cardinality</text>
  
  <!-- PROFILES TABLE (CENTER) -->
  <g transform="translate(480, 220)" filter="url(#dropShadow)">
    <rect x="0" y="0" width="280" height="260" rx="12" fill="#0f172a" stroke="#8b5cf6" stroke-width="3"/>
    <rect x="0" y="0" width="280" height="45" rx="12" fill="url(#profilesGrad)"/>
    <rect x="0" y="30" width="280" height="15" fill="url(#profilesGrad)"/>
    <text x="140" y="30" text-anchor="middle" fill="#fff" font-size="14" font-weight="700">profiles</text>
    
    <rect x="10" y="55" width="30" height="18" rx="4" fill="#7c3aed"/>
    <text x="25" y="68" text-anchor="middle" fill="#fff" font-size="8" font-weight="700">PK</text>
    <text x="50" y="68" fill="#c4b5fd" font-size="11" font-weight="600">id</text>
    <text x="200" y="68" fill="#64748b" font-size="10">uuid</text>
    
    <line x1="10" y1="80" x2="270" y2="80" stroke="#2d2655" stroke-width="1"/>
    
    <text x="20" y="98" fill="#e9d5ff" font-size="10">email</text>
    <text x="200" y="98" fill="#64748b" font-size="10">varchar</text>
    <text x="20" y="118" fill="#e9d5ff" font-size="10">first_name</text>
    <text x="200" y="118" fill="#64748b" font-size="10">varchar</text>
    <text x="20" y="138" fill="#e9d5ff" font-size="10">last_name</text>
    <text x="200" y="138" fill="#64748b" font-size="10">varchar</text>
    <text x="20" y="158" fill="#e9d5ff" font-size="10">user_type</text>
    <text x="200" y="158" fill="#fbbf24" font-size="10">jobseeker | hr</text>
    <text x="20" y="178" fill="#e9d5ff" font-size="10">company</text>
    <text x="200" y="178" fill="#64748b" font-size="10">varchar</text>
    <text x="20" y="198" fill="#e9d5ff" font-size="10">position</text>
    <text x="200" y="198" fill="#64748b" font-size="10">varchar</text>
    <text x="20" y="218" fill="#e9d5ff" font-size="10">phone</text>
    <text x="200" y="218" fill="#64748b" font-size="10">varchar</text>
    <text x="20" y="238" fill="#e9d5ff" font-size="10">created_at</text>
    <text x="200" y="238" fill="#64748b" font-size="10">timestamp</text>
  </g>
  
  <!-- JOBS TABLE (RIGHT) -->
  <g transform="translate(920, 120)" filter="url(#dropShadow)">
    <rect x="0" y="0" width="250" height="240" rx="12" fill="#0f172a" stroke="#3b82f6" stroke-width="2"/>
    <rect x="0" y="0" width="250" height="45" rx="12" fill="url(#jobsGrad)"/>
    <rect x="0" y="30" width="250" height="15" fill="url(#jobsGrad)"/>
    <text x="125" y="30" text-anchor="middle" fill="#fff" font-size="14" font-weight="700">jobs</text>
    
    <rect x="10" y="55" width="30" height="18" rx="4" fill="#2563eb"/>
    <text x="25" y="68" text-anchor="middle" fill="#fff" font-size="8" font-weight="700">PK</text>
    <text x="50" y="68" fill="#93c5fd" font-size="11" font-weight="600">id</text>
    <text x="180" y="68" fill="#64748b" font-size="10">uuid</text>
    
    <line x1="10" y1="80" x2="240" y2="80" stroke="#1e3a5f" stroke-width="1"/>
    
    <rect x="10" y="88" width="30" height="18" rx="4" fill="#7c3aed" opacity="0.7"/>
    <text x="25" y="101" text-anchor="middle" fill="#fff" font-size="8" font-weight="700">FK</text>
    <text x="50" y="101" fill="#c4b5fd" font-size="10">posted_by</text>
    <text x="180" y="101" fill="#64748b" font-size="10">profiles.id</text>
    
    <text x="20" y="121" fill="#bfdbfe" font-size="10">title</text>
    <text x="180" y="121" fill="#64748b" font-size="10">varchar</text>
    <text x="20" y="141" fill="#bfdbfe" font-size="10">company</text>
    <text x="180" y="141" fill="#64748b" font-size="10">varchar</text>
    <text x="20" y="161" fill="#bfdbfe" font-size="10">description</text>
    <text x="180" y="161" fill="#64748b" font-size="10">text</text>
    <text x="20" y="181" fill="#bfdbfe" font-size="10">location</text>
    <text x="180" y="181" fill="#64748b" font-size="10">varchar</text>
    <text x="20" y="201" fill="#bfdbfe" font-size="10">job_type</text>
    <text x="180" y="201" fill="#64748b" font-size="10">varchar</text>
    <text x="20" y="221" fill="#bfdbfe" font-size="10">requirements</text>
    <text x="180" y="221" fill="#64748b" font-size="10">text[]</text>
  </g>
  
  <!-- APPLICATIONS TABLE (BOTTOM) -->
  <g transform="translate(450, 560)" filter="url(#dropShadow)">
    <rect x="0" y="0" width="340" height="200" rx="12" fill="#0f172a" stroke="#10b981" stroke-width="2"/>
    <rect x="0" y="0" width="340" height="45" rx="12" fill="url(#applicationsGrad)"/>
    <rect x="0" y="30" width="340" height="15" fill="url(#applicationsGrad)"/>
    <text x="170" y="30" text-anchor="middle" fill="#fff" font-size="14" font-weight="700">applications</text>
    
    <rect x="10" y="55" width="30" height="18" rx="4" fill="#059669"/>
    <text x="25" y="68" text-anchor="middle" fill="#fff" font-size="8" font-weight="700">PK</text>
    <text x="50" y="68" fill="#6ee7b7" font-size="11" font-weight="600">id</text>
    <text x="250" y="68" fill="#64748b" font-size="10">uuid</text>
    
    <line x1="10" y1="80" x2="330" y2="80" stroke="#134e4a" stroke-width="1"/>
    
    <rect x="10" y="88" width="30" height="18" rx="4" fill="#8b5cf6" opacity="0.7"/>
    <text x="25" y="101" text-anchor="middle" fill="#fff" font-size="8" font-weight="700">FK</text>
    <text x="50" y="101" fill="#c4b5fd" font-size="10">user_id</text>
    <text x="250" y="101" fill="#64748b" font-size="10">profiles.id</text>
    
    <rect x="10" y="111" width="30" height="18" rx="4" fill="#3b82f6" opacity="0.7"/>
    <text x="25" y="124" text-anchor="middle" fill="#fff" font-size="8" font-weight="700">FK</text>
    <text x="50" y="124" fill="#93c5fd" font-size="10">job_id</text>
    <text x="250" y="124" fill="#64748b" font-size="10">jobs.id</text>
    
    <text x="20" y="147" fill="#a7f3d0" font-size="10">status</text>
    <text x="250" y="147" fill="#fbbf24" font-size="10">pending | accepted</text>
    <text x="20" y="167" fill="#a7f3d0" font-size="10">cover_letter</text>
    <text x="250" y="167" fill="#64748b" font-size="10">text</text>
    
    <rect x="15" y="178" width="310" height="18" rx="4" fill="#052e16" stroke="#166534" stroke-width="1"/>
    <text x="25" y="191" fill="#4ade80" font-size="9" font-weight="500">ats_score, predicted_category, confidence_score (AI)</text>
  </g>
  
  <!-- RESUMES TABLE (LEFT) -->
  <g transform="translate(80, 300)" filter="url(#dropShadow)">
    <rect x="0" y="0" width="220" height="150" rx="12" fill="#0f172a" stroke="#f59e0b" stroke-width="2"/>
    <rect x="0" y="0" width="220" height="45" rx="12" fill="url(#resumesGrad)"/>
    <rect x="0" y="30" width="220" height="15" fill="url(#resumesGrad)"/>
    <text x="110" y="30" text-anchor="middle" fill="#fff" font-size="14" font-weight="700">resumes</text>
    
    <rect x="10" y="55" width="30" height="18" rx="4" fill="#d97706"/>
    <text x="25" y="68" text-anchor="middle" fill="#fff" font-size="8" font-weight="700">PK</text>
    <text x="50" y="68" fill="#fcd34d" font-size="11" font-weight="600">id</text>
    <text x="160" y="68" fill="#64748b" font-size="10">uuid</text>
    
    <line x1="10" y1="80" x2="210" y2="80" stroke="#78350f" stroke-width="1"/>
    
    <rect x="10" y="88" width="30" height="18" rx="4" fill="#8b5cf6" opacity="0.7"/>
    <text x="25" y="101" text-anchor="middle" fill="#fff" font-size="8" font-weight="700">FK</text>
    <text x="50" y="101" fill="#c4b5fd" font-size="10">user_id</text>
    <text x="160" y="101" fill="#64748b" font-size="10">profiles.id</text>
    
    <text x="20" y="121" fill="#fde68a" font-size="10">file_name</text>
    <text x="160" y="121" fill="#64748b" font-size="10">varchar</text>
    <text x="20" y="141" fill="#fde68a" font-size="10">file_path</text>
    <text x="160" y="141" fill="#64748b" font-size="10">varchar</text>
  </g>
  
  <!-- SAVED_JOBS TABLE (TOP LEFT) -->
  <g transform="translate(80, 100)" filter="url(#dropShadow)">
    <rect x="0" y="0" width="220" height="140" rx="12" fill="#0f172a" stroke="#ec4899" stroke-width="2"/>
    <rect x="0" y="0" width="220" height="45" rx="12" fill="url(#savedJobsGrad)"/>
    <rect x="0" y="30" width="220" height="15" fill="url(#savedJobsGrad)"/>
    <text x="110" y="30" text-anchor="middle" fill="#fff" font-size="14" font-weight="700">saved_jobs</text>
    
    <rect x="10" y="55" width="30" height="18" rx="4" fill="#be185d"/>
    <text x="25" y="68" text-anchor="middle" fill="#fff" font-size="8" font-weight="700">PK</text>
    <text x="50" y="68" fill="#f9a8d4" font-size="11" font-weight="600">id</text>
    
    <line x1="10" y1="80" x2="210" y2="80" stroke="#831843" stroke-width="1"/>
    
    <rect x="10" y="88" width="30" height="18" rx="4" fill="#8b5cf6" opacity="0.7"/>
    <text x="25" y="101" text-anchor="middle" fill="#fff" font-size="8" font-weight="700">FK</text>
    <text x="50" y="101" fill="#c4b5fd" font-size="10">user_id</text>
    <text x="160" y="101" fill="#64748b" font-size="10">profiles.id</text>
    
    <rect x="10" y="111" width="30" height="18" rx="4" fill="#3b82f6" opacity="0.7"/>
    <text x="25" y="124" text-anchor="middle" fill="#fff" font-size="8" font-weight="700">FK</text>
    <text x="50" y="124" fill="#93c5fd" font-size="10">job_id</text>
    <text x="160" y="124" fill="#64748b" font-size="10">jobs.id</text>
  </g>
  
  <!-- USER_SKILLS TABLE (BOTTOM LEFT) -->
  <g transform="translate(80, 520)" filter="url(#dropShadow)">
    <rect x="0" y="0" width="220" height="120" rx="12" fill="#0f172a" stroke="#06b6d4" stroke-width="2"/>
    <rect x="0" y="0" width="220" height="45" rx="12" fill="url(#skillsGrad)"/>
    <rect x="0" y="30" width="220" height="15" fill="url(#skillsGrad)"/>
    <text x="110" y="30" text-anchor="middle" fill="#fff" font-size="14" font-weight="700">user_skills</text>
    
    <rect x="10" y="55" width="30" height="18" rx="4" fill="#0891b2"/>
    <text x="25" y="68" text-anchor="middle" fill="#fff" font-size="8" font-weight="700">PK</text>
    <text x="50" y="68" fill="#67e8f9" font-size="11" font-weight="600">id</text>
    
    <line x1="10" y1="80" x2="210" y2="80" stroke="#164e63" stroke-width="1"/>
    
    <rect x="10" y="88" width="30" height="18" rx="4" fill="#8b5cf6" opacity="0.7"/>
    <text x="25" y="101" text-anchor="middle" fill="#fff" font-size="8" font-weight="700">FK</text>
    <text x="50" y="101" fill="#c4b5fd" font-size="10">user_id</text>
    <text x="160" y="101" fill="#64748b" font-size="10">profiles.id</text>
  </g>
  
  <!-- PROFILE_VIEWS TABLE (RIGHT) -->
  <g transform="translate(950, 420)" filter="url(#dropShadow)">
    <rect x="0" y="0" width="220" height="150" rx="12" fill="#0f172a" stroke="#ef4444" stroke-width="2"/>
    <rect x="0" y="0" width="220" height="45" rx="12" fill="url(#viewsGrad)"/>
    <rect x="0" y="30" width="220" height="15" fill="url(#viewsGrad)"/>
    <text x="110" y="30" text-anchor="middle" fill="#fff" font-size="14" font-weight="700">profile_views</text>
    
    <rect x="10" y="55" width="30" height="18" rx="4" fill="#dc2626"/>
    <text x="25" y="68" text-anchor="middle" fill="#fff" font-size="8" font-weight="700">PK</text>
    <text x="50" y="68" fill="#fca5a5" font-size="11" font-weight="600">id</text>
    
    <line x1="10" y1="80" x2="210" y2="80" stroke="#7f1d1d" stroke-width="1"/>
    
    <rect x="10" y="88" width="30" height="18" rx="4" fill="#8b5cf6" opacity="0.7"/>
    <text x="25" y="101" text-anchor="middle" fill="#fff" font-size="8" font-weight="700">FK</text>
    <text x="50" y="101" fill="#c4b5fd" font-size="10">profile_id</text>
    <text x="160" y="101" fill="#64748b" font-size="10">profiles.id</text>
    
    <rect x="10" y="111" width="30" height="18" rx="4" fill="#8b5cf6" opacity="0.7"/>
    <text x="25" y="124" text-anchor="middle" fill="#fff" font-size="8" font-weight="700">FK</text>
    <text x="50" y="124" fill="#c4b5fd" font-size="10">viewer_id</text>
    <text x="160" y="124" fill="#64748b" font-size="10">profiles.id</text>
  </g>
  
  <!-- RELATIONSHIP LINES -->
  
  <!-- profiles to jobs (1:N) -->
  <path d="M760 300 L870 300 Q890 300 890 250 L890 200 Q890 150 910 150" stroke="#a78bfa" stroke-width="2.5" fill="none"/>
  <circle cx="760" cy="300" r="6" fill="#8b5cf6" stroke="#c4b5fd" stroke-width="2"/>
  <text x="775" y="295" fill="#c4b5fd" font-size="12" font-weight="700">1</text>
  <text x="895" y="175" fill="#93c5fd" font-size="12" font-weight="700">N</text>
  
  <!-- profiles to applications (1:N) -->
  <path d="M620 480 L620 520 Q620 540 590 540 L590 555" stroke="#a78bfa" stroke-width="2.5" fill="none"/>
  <circle cx="620" cy="480" r="6" fill="#8b5cf6" stroke="#c4b5fd" stroke-width="2"/>
  <text x="635" y="500" fill="#c4b5fd" font-size="12" font-weight="700">1</text>
  <text x="605" y="550" fill="#6ee7b7" font-size="12" font-weight="700">N</text>
  
  <!-- jobs to applications (1:N) -->
  <path d="M1045 360 L1045 500 Q1045 530 950 530 Q850 530 800 555" stroke="#60a5fa" stroke-width="2.5" fill="none"/>
  <circle cx="1045" cy="360" r="6" fill="#3b82f6" stroke="#93c5fd" stroke-width="2"/>
  <text x="1060" y="380" fill="#93c5fd" font-size="12" font-weight="700">1</text>
  <text x="815" y="548" fill="#6ee7b7" font-size="12" font-weight="700">N</text>
  
  <!-- profiles to resumes (1:N) -->
  <path d="M480 370 L350 370 Q320 370 310 370" stroke="#a78bfa" stroke-width="2.5" fill="none"/>
  <circle cx="480" cy="370" r="6" fill="#8b5cf6" stroke="#c4b5fd" stroke-width="2"/>
  <text x="455" y="365" fill="#c4b5fd" font-size="12" font-weight="700">1</text>
  <text x="320" y="365" fill="#fcd34d" font-size="12" font-weight="700">N</text>
  
  <!-- profiles to saved_jobs (1:N) -->
  <path d="M480 280 L400 280 Q350 280 350 220 Q350 170 310 170" stroke="#a78bfa" stroke-width="2.5" fill="none"/>
  <circle cx="480" cy="280" r="6" fill="#8b5cf6" stroke="#c4b5fd" stroke-width="2"/>
  <text x="455" y="275" fill="#c4b5fd" font-size="12" font-weight="700">1</text>
  <text x="320" y="165" fill="#f9a8d4" font-size="12" font-weight="700">N</text>
  
  <!-- jobs to saved_jobs (1:N) -->
  <path d="M920 200 L400 200 Q350 200 320 200" stroke="#60a5fa" stroke-width="2.5" fill="none" stroke-dasharray="6,4"/>
  <circle cx="920" cy="200" r="6" fill="#3b82f6" stroke="#93c5fd" stroke-width="2"/>
  <text x="895" y="195" fill="#93c5fd" font-size="12" font-weight="700">1</text>
  
  <!-- profiles to user_skills (1:N) -->
  <path d="M480 450 L400 450 Q350 450 350 500 Q350 550 310 560" stroke="#a78bfa" stroke-width="2.5" fill="none"/>
  <circle cx="480" cy="450" r="6" fill="#8b5cf6" stroke="#c4b5fd" stroke-width="2"/>
  <text x="455" y="445" fill="#c4b5fd" font-size="12" font-weight="700">1</text>
  <text x="320" y="555" fill="#67e8f9" font-size="12" font-weight="700">N</text>
  
  <!-- profiles to profile_views (1:N) -->
  <path d="M760 400 L850 400 Q900 400 920 430 L945 455" stroke="#a78bfa" stroke-width="2.5" fill="none"/>
  <circle cx="760" cy="400" r="6" fill="#8b5cf6" stroke="#c4b5fd" stroke-width="2"/>
  <text x="775" y="395" fill="#c4b5fd" font-size="12" font-weight="700">1</text>
  <text x="920" y="448" fill="#fca5a5" font-size="12" font-weight="700">N</text>
  
  <!-- LEGEND -->
  <g transform="translate(50, 700)">
    <rect x="0" y="0" width="1200" height="120" rx="12" fill="#0f172a" stroke="#334155" stroke-width="1"/>
    
    <text x="600" y="25" text-anchor="middle" fill="#f8fafc" font-size="13" font-weight="600">RELATIONSHIP LEGEND - CARDINALITY NOTATION</text>
    <line x1="50" y1="38" x2="1150" y2="38" stroke="#334155" stroke-width="1"/>
    
    <!-- One-to-Many notation -->
    <g transform="translate(80, 55)">
      <circle cx="0" cy="15" r="6" fill="#8b5cf6" stroke="#c4b5fd" stroke-width="2"/>
      <text x="15" y="20" fill="#c4b5fd" font-size="11" font-weight="700">1</text>
      <line x1="30" y1="15" x2="100" y2="15" stroke="#94a3b8" stroke-width="2"/>
      <text x="110" y="20" fill="#94a3b8" font-size="11" font-weight="700">N</text>
      <text x="140" y="20" fill="#64748b" font-size="10">One-to-Many Relationship</text>
    </g>
    
    <!-- PK notation -->
    <g transform="translate(400, 55)">
      <rect x="0" y="5" width="30" height="18" rx="4" fill="#7c3aed"/>
      <text x="15" y="18" text-anchor="middle" fill="#fff" font-size="8" font-weight="700">PK</text>
      <text x="45" y="18" fill="#64748b" font-size="10">Primary Key</text>
    </g>
    
    <!-- FK notation -->
    <g transform="translate(550, 55)">
      <rect x="0" y="5" width="30" height="18" rx="4" fill="#3b82f6" opacity="0.7"/>
      <text x="15" y="18" text-anchor="middle" fill="#fff" font-size="8" font-weight="700">FK</text>
      <text x="45" y="18" fill="#64748b" font-size="10">Foreign Key</text>
    </g>
    
    <!-- Color coding -->
    <g transform="translate(700, 50)">
      <rect x="0" y="0" width="15" height="15" rx="3" fill="#8b5cf6"/>
      <text x="25" y="12" fill="#64748b" font-size="10">profiles</text>
      
      <rect x="100" y="0" width="15" height="15" rx="3" fill="#3b82f6"/>
      <text x="125" y="12" fill="#64748b" font-size="10">jobs</text>
      
      <rect x="180" y="0" width="15" height="15" rx="3" fill="#10b981"/>
      <text x="205" y="12" fill="#64748b" font-size="10">applications</text>
      
      <rect x="300" y="0" width="15" height="15" rx="3" fill="#f59e0b"/>
      <text x="325" y="12" fill="#64748b" font-size="10">resumes</text>
    </g>
    
    <!-- Key relationships text -->
    <g transform="translate(80, 90)">
      <text x="0" y="0" fill="#94a3b8" font-size="10">Key Relationships:</text>
      <text x="120" y="0" fill="#c4b5fd" font-size="10">profiles - jobs (HR posts)</text>
      <text x="300" y="0" fill="#c4b5fd" font-size="10">profiles - applications (Jobseeker applies)</text>
      <text x="560" y="0" fill="#93c5fd" font-size="10">jobs - applications (Job receives)</text>
      <text x="780" y="0" fill="#fcd34d" font-size="10">profiles - resumes (User uploads)</text>
    </g>
  </g>
  
</svg>
