<svg xmlns="http://www.w3.org/2000/svg" viewBox="0 0 1400 700" font-family="Segoe UI, Helvetica Neue, Arial, sans-serif">
  <defs>
    <linearGradient id="bgGrad" x1="0%" y1="0%" x2="100%" y2="100%">
      <stop offset="0%" style="stop-color:#0f172a"/>
      <stop offset="100%" style="stop-color:#1e293b"/>
    </linearGradient>
    
    <linearGradient id="purpleGrad" x1="0%" y1="0%" x2="100%" y2="100%">
      <stop offset="0%" style="stop-color:#8b5cf6"/>
      <stop offset="100%" style="stop-color:#6d28d9"/>
    </linearGradient>
    
    <linearGradient id="blueGrad" x1="0%" y1="0%" x2="100%" y2="100%">
      <stop offset="0%" style="stop-color:#3b82f6"/>
      <stop offset="100%" style="stop-color:#1d4ed8"/>
    </linearGradient>
    
    <linearGradient id="greenGrad" x1="0%" y1="0%" x2="100%" y2="100%">
      <stop offset="0%" style="stop-color:#10b981"/>
      <stop offset="100%" style="stop-color:#059669"/>
    </linearGradient>
    
    <linearGradient id="orangeGrad" x1="0%" y1="0%" x2="100%" y2="100%">
      <stop offset="0%" style="stop-color:#f59e0b"/>
      <stop offset="100%" style="stop-color:#d97706"/>
    </linearGradient>
    
    <linearGradient id="pinkGrad" x1="0%" y1="0%" x2="100%" y2="100%">
      <stop offset="0%" style="stop-color:#ec4899"/>
      <stop offset="100%" style="stop-color:#be185d"/>
    </linearGradient>
    
    <linearGradient id="cyanGrad" x1="0%" y1="0%" x2="100%" y2="100%">
      <stop offset="0%" style="stop-color:#06b6d4"/>
      <stop offset="100%" style="stop-color:#0891b2"/>
    </linearGradient>
    
    <filter id="dropShadow" x="-20%" y="-20%" width="140%" height="140%">
      <feDropShadow dx="0" dy="3" stdDeviation="4" flood-color="#000" flood-opacity="0.4"/>
    </filter>
    
    <marker id="arrowRight" markerWidth="10" markerHeight="10" refX="9" refY="3" orient="auto">
      <path d="M0,0 L0,6 L9,3 z" fill="#64748b"/>
    </marker>
  </defs>
  
  <rect width="1400" height="700" fill="url(#bgGrad)"/>
  
  <!-- Title -->
  <text x="700" y="40" text-anchor="middle" fill="#f8fafc" font-size="24" font-weight="700">JOBSEEKER USER FLOW</text>
  <text x="700" y="65" text-anchor="middle" fill="#94a3b8" font-size="12">Complete Journey: Registration → Profile Setup → Browse Jobs → Apply → Track Status</text>
  
  <!-- User icon -->
  <g transform="translate(30, 100)">
    <circle cx="40" cy="40" r="35" fill="url(#purpleGrad)" stroke="#a78bfa" stroke-width="2"/>
    <circle cx="40" cy="32" r="12" fill="#fff"/>
    <path d="M40 46 C22 46 15 62 15 72 L65 72 C65 62 58 46 40 46" fill="#fff"/>
    <text x="40" y="95" text-anchor="middle" fill="#c4b5fd" font-size="11" font-weight="600">Jobseeker</text>
  </g>
  
  <!-- STEP 1: Registration -->
  <g transform="translate(130, 100)" filter="url(#dropShadow)">
    <rect x="0" y="0" width="180" height="220" rx="10" fill="#1e293b" stroke="#8b5cf6" stroke-width="2"/>
    
    <!-- Header -->
    <rect x="0" y="0" width="180" height="35" rx="10" fill="url(#purpleGrad)"/>
    <rect x="0" y="20" width="180" height="15" fill="url(#purpleGrad)"/>
    <circle cx="20" cy="17" r="10" fill="#fff" opacity="0.2"/>
    <text x="17" y="22" fill="#fff" font-size="12" font-weight="700">1</text>
    <text x="90" y="23" text-anchor="middle" fill="#fff" font-size="11" font-weight="600">REGISTER</text>
    
    <!-- Mock form -->
    <rect x="15" y="45" width="150" height="22" rx="4" fill="#0f172a" stroke="#334155" stroke-width="1"/>
    <text x="25" y="60" fill="#64748b" font-size="9">Email address</text>
    
    <rect x="15" y="75" width="150" height="22" rx="4" fill="#0f172a" stroke="#334155" stroke-width="1"/>
    <text x="25" y="90" fill="#64748b" font-size="9">Password</text>
    
    <rect x="15" y="105" width="150" height="22" rx="4" fill="#0f172a" stroke="#334155" stroke-width="1"/>
    <text x="25" y="120" fill="#64748b" font-size="9">Confirm Password</text>
    
    <!-- Account type selection -->
    <text x="15" y="145" fill="#94a3b8" font-size="9">Account Type:</text>
    <rect x="15" y="152" width="70" height="22" rx="4" fill="#8b5cf6" stroke="#a78bfa" stroke-width="1"/>
    <text x="50" y="167" text-anchor="middle" fill="#fff" font-size="9" font-weight="600">Jobseeker</text>
    <rect x="95" y="152" width="70" height="22" rx="4" fill="#0f172a" stroke="#334155" stroke-width="1"/>
    <text x="130" y="167" text-anchor="middle" fill="#64748b" font-size="9">HR</text>
    
    <rect x="40" y="185" width="100" height="25" rx="5" fill="#8b5cf6"/>
    <text x="90" y="202" text-anchor="middle" fill="#fff" font-size="10" font-weight="600">Sign Up</text>
  </g>
  
  <!-- Arrow 1-2 -->
  <path d="M310 210 L340 210" stroke="#64748b" stroke-width="2" fill="none" marker-end="url(#arrowRight)"/>
  
  <!-- STEP 2: Email Confirmation -->
  <g transform="translate(350, 100)" filter="url(#dropShadow)">
    <rect x="0" y="0" width="160" height="220" rx="10" fill="#1e293b" stroke="#3b82f6" stroke-width="2"/>
    
    <rect x="0" y="0" width="160" height="35" rx="10" fill="url(#blueGrad)"/>
    <rect x="0" y="20" width="160" height="15" fill="url(#blueGrad)"/>
    <circle cx="20" cy="17" r="10" fill="#fff" opacity="0.2"/>
    <text x="17" y="22" fill="#fff" font-size="12" font-weight="700">2</text>
    <text x="85" y="23" text-anchor="middle" fill="#fff" font-size="11" font-weight="600">CONFIRM EMAIL</text>
    
    <!-- Email icon -->
    <rect x="45" y="55" width="70" height="50" rx="5" fill="#0f172a" stroke="#3b82f6" stroke-width="1"/>
    <path d="M50 60 L80 85 L110 60" stroke="#3b82f6" stroke-width="2" fill="none"/>
    
    <!-- Message -->
    <text x="80" y="125" text-anchor="middle" fill="#94a3b8" font-size="9">Check your inbox</text>
    <text x="80" y="140" text-anchor="middle" fill="#64748b" font-size="8">Click the confirmation link</text>
    
    <!-- Success state -->
    <rect x="30" y="160" width="100" height="40" rx="6" fill="#052e16" stroke="#166534" stroke-width="1"/>
    <circle cx="55" cy="180" r="10" fill="#4ade80"/>
    <text x="52" y="184" fill="#052e16" font-size="12" font-weight="700">✓</text>
    <text x="95" y="184" text-anchor="middle" fill="#4ade80" font-size="9" font-weight="500">Verified!</text>
  </g>
  
  <!-- Arrow 2-3 -->
  <path d="M510 210 L540 210" stroke="#64748b" stroke-width="2" fill="none" marker-end="url(#arrowRight)"/>
  
  <!-- STEP 3: Profile Setup -->
  <g transform="translate(550, 100)" filter="url(#dropShadow)">
    <rect x="0" y="0" width="180" height="220" rx="10" fill="#1e293b" stroke="#10b981" stroke-width="2"/>
    
    <rect x="0" y="0" width="180" height="35" rx="10" fill="url(#greenGrad)"/>
    <rect x="0" y="20" width="180" height="15" fill="url(#greenGrad)"/>
    <circle cx="20" cy="17" r="10" fill="#fff" opacity="0.2"/>
    <text x="17" y="22" fill="#fff" font-size="12" font-weight="700">3</text>
    <text x="95" y="23" text-anchor="middle" fill="#fff" font-size="11" font-weight="600">SETUP PROFILE</text>
    
    <!-- Profile form -->
    <rect x="15" y="45" width="70" height="18" rx="3" fill="#0f172a" stroke="#334155" stroke-width="1"/>
    <text x="20" y="57" fill="#64748b" font-size="8">First Name</text>
    <rect x="95" y="45" width="70" height="18" rx="3" fill="#0f172a" stroke="#334155" stroke-width="1"/>
    <text x="100" y="57" fill="#64748b" font-size="8">Last Name</text>
    
    <rect x="15" y="70" width="150" height="18" rx="3" fill="#0f172a" stroke="#334155" stroke-width="1"/>
    <text x="20" y="82" fill="#64748b" font-size="8">Phone Number</text>
    
    <rect x="15" y="95" width="150" height="18" rx="3" fill="#0f172a" stroke="#334155" stroke-width="1"/>
    <text x="20" y="107" fill="#64748b" font-size="8">Current Position</text>
    
    <!-- Resume upload -->
    <rect x="15" y="125" width="150" height="45" rx="5" fill="#0f172a" stroke="#10b981" stroke-width="1" stroke-dasharray="4,2"/>
    <text x="90" y="145" text-anchor="middle" fill="#10b981" font-size="9">📄 Upload Resume</text>
    <text x="90" y="160" text-anchor="middle" fill="#64748b" font-size="8">PDF, max 5MB</text>
    
    <rect x="40" y="180" width="100" height="25" rx="5" fill="#10b981"/>
    <text x="90" y="197" text-anchor="middle" fill="#fff" font-size="10" font-weight="600">Save Profile</text>
  </g>
  
  <!-- Arrow 3-4 -->
  <path d="M730 210 L760 210" stroke="#64748b" stroke-width="2" fill="none" marker-end="url(#arrowRight)"/>
  
  <!-- STEP 4: Dashboard -->
  <g transform="translate(770, 100)" filter="url(#dropShadow)">
    <rect x="0" y="0" width="200" height="220" rx="10" fill="#1e293b" stroke="#f59e0b" stroke-width="2"/>
    
    <rect x="0" y="0" width="200" height="35" rx="10" fill="url(#orangeGrad)"/>
    <rect x="0" y="20" width="200" height="15" fill="url(#orangeGrad)"/>
    <circle cx="20" cy="17" r="10" fill="#fff" opacity="0.2"/>
    <text x="17" y="22" fill="#fff" font-size="12" font-weight="700">4</text>
    <text x="105" y="23" text-anchor="middle" fill="#fff" font-size="11" font-weight="600">DASHBOARD</text>
    
    <!-- Stats cards -->
    <rect x="10" y="45" width="55" height="45" rx="5" fill="#0f172a" stroke="#334155" stroke-width="1"/>
    <text x="37" y="65" text-anchor="middle" fill="#fbbf24" font-size="16" font-weight="700">0</text>
    <text x="37" y="82" text-anchor="middle" fill="#64748b" font-size="7">Applications</text>
    
    <rect x="72" y="45" width="55" height="45" rx="5" fill="#0f172a" stroke="#334155" stroke-width="1"/>
    <text x="99" y="65" text-anchor="middle" fill="#4ade80" font-size="16" font-weight="700">5</text>
    <text x="99" y="82" text-anchor="middle" fill="#64748b" font-size="7">Saved Jobs</text>
    
    <rect x="134" y="45" width="55" height="45" rx="5" fill="#0f172a" stroke="#334155" stroke-width="1"/>
    <text x="161" y="65" text-anchor="middle" fill="#38bdf8" font-size="16" font-weight="700">12</text>
    <text x="161" y="82" text-anchor="middle" fill="#64748b" font-size="7">Profile Views</text>
    
    <!-- Quick actions -->
    <text x="15" y="110" fill="#94a3b8" font-size="9" font-weight="500">Quick Actions</text>
    
    <rect x="10" y="118" width="85" height="30" rx="5" fill="#3b82f6"/>
    <text x="52" y="137" text-anchor="middle" fill="#fff" font-size="9" font-weight="500">Browse Jobs</text>
    
    <rect x="105" y="118" width="85" height="30" rx="5" fill="#0f172a" stroke="#334155" stroke-width="1"/>
    <text x="147" y="137" text-anchor="middle" fill="#94a3b8" font-size="9">My Resume</text>
    
    <!-- Recent activity -->
    <text x="15" y="165" fill="#94a3b8" font-size="9" font-weight="500">Recent Activity</text>
    <rect x="10" y="172" width="180" height="35" rx="4" fill="#0f172a"/>
    <text x="20" y="190" fill="#64748b" font-size="8">No applications yet</text>
    <text x="20" y="202" fill="#475569" font-size="7">Start exploring opportunities!</text>
  </g>
  
  <!-- Arrow down to row 2 -->
  <path d="M870 320 L870 360 Q870 380 850 380 L700 380 Q680 380 680 400 L680 420" stroke="#64748b" stroke-width="2" fill="none" marker-end="url(#arrowRight)"/>
  
  <!-- STEP 5: Browse Jobs -->
  <g transform="translate(550, 420)" filter="url(#dropShadow)">
    <rect x="0" y="0" width="260" height="230" rx="10" fill="#1e293b" stroke="#ec4899" stroke-width="2"/>
    
    <rect x="0" y="0" width="260" height="35" rx="10" fill="url(#pinkGrad)"/>
    <rect x="0" y="20" width="260" height="15" fill="url(#pinkGrad)"/>
    <circle cx="20" cy="17" r="10" fill="#fff" opacity="0.2"/>
    <text x="17" y="22" fill="#fff" font-size="12" font-weight="700">5</text>
    <text x="135" y="23" text-anchor="middle" fill="#fff" font-size="11" font-weight="600">BROWSE JOBS</text>
    
    <!-- Search bar -->
    <rect x="10" y="45" width="180" height="25" rx="5" fill="#0f172a" stroke="#334155" stroke-width="1"/>
    <text x="20" y="62" fill="#64748b" font-size="9">🔍 Search jobs...</text>
    <rect x="195" y="45" width="55" height="25" rx="5" fill="#ec4899"/>
    <text x="222" y="62" text-anchor="middle" fill="#fff" font-size="9">Filter</text>
    
    <!-- Job cards -->
    <rect x="10" y="80" width="240" height="65" rx="6" fill="#0f172a" stroke="#334155" stroke-width="1"/>
    <text x="20" y="98" fill="#f8fafc" font-size="10" font-weight="600">Senior Frontend Developer</text>
    <text x="20" y="112" fill="#64748b" font-size="8">TechCorp Inc. • Remote • $120k-150k</text>
    <rect x="20" y="122" width="45" height="16" rx="3" fill="#1e3a5f"/>
    <text x="42" y="133" text-anchor="middle" fill="#38bdf8" font-size="7">React</text>
    <rect x="70" y="122" width="50" height="16" rx="3" fill="#1e3a5f"/>
    <text x="95" y="133" text-anchor="middle" fill="#38bdf8" font-size="7">TypeScript</text>
    <rect x="180" y="120" width="60" height="20" rx="4" fill="#10b981"/>
    <text x="210" y="134" text-anchor="middle" fill="#fff" font-size="8" font-weight="500">Apply</text>
    
    <rect x="10" y="155" width="240" height="65" rx="6" fill="#0f172a" stroke="#ec4899" stroke-width="2"/>
    <text x="20" y="173" fill="#f8fafc" font-size="10" font-weight="600">Full Stack Engineer</text>
    <text x="20" y="187" fill="#64748b" font-size="8">StartupXYZ • Hybrid • $100k-130k</text>
    <rect x="20" y="197" width="45" height="16" rx="3" fill="#1e3a5f"/>
    <text x="42" y="208" text-anchor="middle" fill="#38bdf8" font-size="7">Node.js</text>
    <rect x="70" y="197" width="40" height="16" rx="3" fill="#1e3a5f"/>
    <text x="90" y="208" text-anchor="middle" fill="#38bdf8" font-size="7">Next.js</text>
    <rect x="180" y="195" width="60" height="20" rx="4" fill="#10b981"/>
    <text x="210" y="209" text-anchor="middle" fill="#fff" font-size="8" font-weight="500">Apply</text>
  </g>
  
  <!-- Arrow 5-6 -->
  <path d="M550 535 L520 535" stroke="#64748b" stroke-width="2" fill="none" marker-end="url(#arrowRight)"/>
  
  <!-- STEP 6: Apply -->
  <g transform="translate(280, 420)" filter="url(#dropShadow)">
    <rect x="0" y="0" width="230" height="230" rx="10" fill="#1e293b" stroke="#06b6d4" stroke-width="2"/>
    
    <rect x="0" y="0" width="230" height="35" rx="10" fill="url(#cyanGrad)"/>
    <rect x="0" y="20" width="230" height="15" fill="url(#cyanGrad)"/>
    <circle cx="20" cy="17" r="10" fill="#fff" opacity="0.2"/>
    <text x="17" y="22" fill="#fff" font-size="12" font-weight="700">6</text>
    <text x="120" y="23" text-anchor="middle" fill="#fff" font-size="11" font-weight="600">SUBMIT APPLICATION</text>
    
    <!-- Job title -->
    <text x="15" y="55" fill="#f8fafc" font-size="11" font-weight="600">Full Stack Engineer</text>
    <text x="15" y="70" fill="#64748b" font-size="9">StartupXYZ • Hybrid</text>
    
    <line x1="15" y1="80" x2="215" y2="80" stroke="#334155" stroke-width="1"/>
    
    <!-- Resume attached -->
    <text x="15" y="100" fill="#94a3b8" font-size="9">Resume</text>
    <rect x="15" y="108" width="200" height="30" rx="5" fill="#052e16" stroke="#166534" stroke-width="1"/>
    <text x="30" y="127" fill="#4ade80" font-size="9">✓ my_resume.pdf attached</text>
    
    <!-- Cover letter -->
    <text x="15" y="155" fill="#94a3b8" font-size="9">Cover Letter (Optional)</text>
    <rect x="15" y="163" width="200" height="35" rx="5" fill="#0f172a" stroke="#334155" stroke-width="1"/>
    <text x="25" y="180" fill="#64748b" font-size="8">I am excited to apply for this</text>
    <text x="25" y="192" fill="#64748b" font-size="8">position because...</text>
    
    <rect x="60" y="205" width="110" height="28" rx="5" fill="#06b6d4"/>
    <text x="115" y="224" text-anchor="middle" fill="#fff" font-size="10" font-weight="600">Submit Application</text>
  </g>
  
  <!-- Arrow 6-7 -->
  <path d="M280 535 L250 535" stroke="#64748b" stroke-width="2" fill="none" marker-end="url(#arrowRight)"/>
  
  <!-- STEP 7: Track Status -->
  <g transform="translate(30, 420)" filter="url(#dropShadow)">
    <rect x="0" y="0" width="210" height="230" rx="10" fill="#1e293b" stroke="#10b981" stroke-width="2"/>
    
    <rect x="0" y="0" width="210" height="35" rx="10" fill="url(#greenGrad)"/>
    <rect x="0" y="20" width="210" height="15" fill="url(#greenGrad)"/>
    <circle cx="20" cy="17" r="10" fill="#fff" opacity="0.2"/>
    <text x="17" y="22" fill="#fff" font-size="12" font-weight="700">7</text>
    <text x="110" y="23" text-anchor="middle" fill="#fff" font-size="11" font-weight="600">TRACK STATUS</text>
    
    <text x="15" y="55" fill="#94a3b8" font-size="9" font-weight="500">My Applications</text>
    
    <!-- Application card with status -->
    <rect x="10" y="65" width="190" height="75" rx="6" fill="#0f172a" stroke="#334155" stroke-width="1"/>
    <text x="20" y="83" fill="#f8fafc" font-size="10" font-weight="600">Full Stack Engineer</text>
    <text x="20" y="97" fill="#64748b" font-size="8">StartupXYZ</text>
    <text x="20" y="111" fill="#475569" font-size="8">Applied: Jan 15, 2026</text>
    
    <!-- Status badge -->
    <rect x="120" y="100" width="70" height="20" rx="4" fill="#fbbf24"/>
    <text x="155" y="114" text-anchor="middle" fill="#000" font-size="8" font-weight="600">Under Review</text>
    
    <!-- Second application -->
    <rect x="10" y="150" width="190" height="75" rx="6" fill="#0f172a" stroke="#10b981" stroke-width="2"/>
    <text x="20" y="168" fill="#f8fafc" font-size="10" font-weight="600">Senior Developer</text>
    <text x="20" y="182" fill="#64748b" font-size="8">TechCorp Inc.</text>
    <text x="20" y="196" fill="#475569" font-size="8">Applied: Jan 10, 2026</text>
    
    <!-- Accepted status -->
    <rect x="120" y="185" width="70" height="20" rx="4" fill="#10b981"/>
    <text x="155" y="199" text-anchor="middle" fill="#fff" font-size="8" font-weight="600">Accepted!</text>
  </g>
  
  <!-- Flow summary at bottom -->
  <g transform="translate(850, 420)">
    <rect x="0" y="0" width="520" height="230" rx="12" fill="#0f172a" stroke="#334155" stroke-width="1"/>
    
    <text x="260" y="30" text-anchor="middle" fill="#f8fafc" font-size="14" font-weight="600">JOBSEEKER JOURNEY SUMMARY</text>
    <line x1="20" y1="45" x2="500" y2="45" stroke="#334155" stroke-width="1"/>
    
    <!-- Journey steps summary -->
    <g transform="translate(20, 60)">
      <circle cx="15" cy="12" r="12" fill="url(#purpleGrad)"/>
      <text x="12" y="17" fill="#fff" font-size="10" font-weight="700">1</text>
      <text x="40" y="17" fill="#c4b5fd" font-size="10" font-weight="500">Register</text>
      <text x="40" y="30" fill="#64748b" font-size="8">Create account as Jobseeker</text>
    </g>
    
    <g transform="translate(20, 100)">
      <circle cx="15" cy="12" r="12" fill="url(#blueGrad)"/>
      <text x="12" y="17" fill="#fff" font-size="10" font-weight="700">2</text>
      <text x="40" y="17" fill="#93c5fd" font-size="10" font-weight="500">Verify Email</text>
      <text x="40" y="30" fill="#64748b" font-size="8">Confirm email address</text>
    </g>
    
    <g transform="translate(20, 140)">
      <circle cx="15" cy="12" r="12" fill="url(#greenGrad)"/>
      <text x="12" y="17" fill="#fff" font-size="10" font-weight="700">3</text>
      <text x="40" y="17" fill="#6ee7b7" font-size="10" font-weight="500">Setup Profile</text>
      <text x="40" y="30" fill="#64748b" font-size="8">Add details and upload resume</text>
    </g>
    
    <g transform="translate(20, 180)">
      <circle cx="15" cy="12" r="12" fill="url(#orangeGrad)"/>
      <text x="12" y="17" fill="#fff" font-size="10" font-weight="700">4</text>
      <text x="40" y="17" fill="#fcd34d" font-size="10" font-weight="500">Dashboard</text>
      <text x="40" y="30" fill="#64748b" font-size="8">View stats and quick actions</text>
    </g>
    
    <g transform="translate(260, 60)">
      <circle cx="15" cy="12" r="12" fill="url(#pinkGrad)"/>
      <text x="12" y="17" fill="#fff" font-size="10" font-weight="700">5</text>
      <text x="40" y="17" fill="#f9a8d4" font-size="10" font-weight="500">Browse Jobs</text>
      <text x="40" y="30" fill="#64748b" font-size="8">Search and filter opportunities</text>
    </g>
    
    <g transform="translate(260, 100)">
      <circle cx="15" cy="12" r="12" fill="url(#cyanGrad)"/>
      <text x="12" y="17" fill="#fff" font-size="10" font-weight="700">6</text>
      <text x="40" y="17" fill="#67e8f9" font-size="10" font-weight="500">Apply</text>
      <text x="40" y="30" fill="#64748b" font-size="8">Submit with resume + cover letter</text>
    </g>
    
    <g transform="translate(260, 140)">
      <circle cx="15" cy="12" r="12" fill="url(#greenGrad)"/>
      <text x="12" y="17" fill="#fff" font-size="10" font-weight="700">7</text>
      <text x="40" y="17" fill="#6ee7b7" font-size="10" font-weight="500">Track Status</text>
      <text x="40" y="30" fill="#64748b" font-size="8">Monitor application progress</text>
    </g>
    
    <!-- Key features -->
    <rect x="260" y="165" width="240" height="50" rx="6" fill="#1e1b4b" stroke="#4c1d95" stroke-width="1"/>
    <text x="380" y="185" text-anchor="middle" fill="#a78bfa" font-size="9" font-weight="500">AI-Powered Features:</text>
    <text x="380" y="200" text-anchor="middle" fill="#c4b5fd" font-size="8">ATS Score • Category Prediction • Confidence</text>
  </g>
  
</svg>
