<svg xmlns="http://www.w3.org/2000/svg" viewBox="0 0 1400 600" font-family="'Segoe UI', 'Helvetica Neue', Arial, sans-serif">
  <defs>
    <!-- Gradients -->
    <linearGradient id="bgGrad" x1="0%" y1="0%" x2="100%" y2="100%">
      <stop offset="0%" style="stop-color:#0c0a1d"/>
      <stop offset="100%" style="stop-color:#1a1333"/>
    </linearGradient>
    
    <linearGradient id="inputGrad" x1="0%" y1="0%" x2="100%" y2="100%">
      <stop offset="0%" style="stop-color:#3b82f6"/>
      <stop offset="100%" style="stop-color:#1d4ed8"/>
    </linearGradient>
    
    <linearGradient id="extractGrad" x1="0%" y1="0%" x2="100%" y2="100%">
      <stop offset="0%" style="stop-color:#8b5cf6"/>
      <stop offset="100%" style="stop-color:#6d28d9"/>
    </linearGradient>
    
    <linearGradient id="preprocessGrad" x1="0%" y1="0%" x2="100%" y2="100%">
      <stop offset="0%" style="stop-color:#06b6d4"/>
      <stop offset="100%" style="stop-color:#0891b2"/>
    </linearGradient>
    
    <linearGradient id="vectorGrad" x1="0%" y1="0%" x2="100%" y2="100%">
      <stop offset="0%" style="stop-color:#f59e0b"/>
      <stop offset="100%" style="stop-color:#d97706"/>
    </linearGradient>
    
    <linearGradient id="scoreGrad" x1="0%" y1="0%" x2="100%" y2="100%">
      <stop offset="0%" style="stop-color:#10b981"/>
      <stop offset="100%" style="stop-color:#059669"/>
    </linearGradient>
    
    <linearGradient id="predictGrad" x1="0%" y1="0%" x2="100%" y2="100%">
      <stop offset="0%" style="stop-color:#ec4899"/>
      <stop offset="100%" style="stop-color:#be185d"/>
    </linearGradient>
    
    <linearGradient id="outputGrad" x1="0%" y1="0%" x2="100%" y2="100%">
      <stop offset="0%" style="stop-color:#ef4444"/>
      <stop offset="100%" style="stop-color:#dc2626"/>
    </linearGradient>
    
    <linearGradient id="pipelineGrad" x1="0%" y1="0%" x2="100%" y2="0%">
      <stop offset="0%" style="stop-color:#3b82f6"/>
      <stop offset="20%" style="stop-color:#8b5cf6"/>
      <stop offset="40%" style="stop-color:#06b6d4"/>
      <stop offset="60%" style="stop-color:#f59e0b"/>
      <stop offset="80%" style="stop-color:#10b981"/>
      <stop offset="100%" style="stop-color:#ec4899"/>
    </linearGradient>
    
    <!-- Arrow markers -->
    <marker id="arrowWhite" markerWidth="10" markerHeight="10" refX="9" refY="3" orient="auto">
      <path d="M0,0 L0,6 L9,3 z" fill="#94a3b8"/>
    </marker>
    <marker id="arrowGreen" markerWidth="10" markerHeight="10" refX="9" refY="3" orient="auto">
      <path d="M0,0 L0,6 L9,3 z" fill="#4ade80"/>
    </marker>
    
    <!-- Drop shadow -->
    <filter id="dropShadow" x="-20%" y="-20%" width="140%" height="140%">
      <feDropShadow dx="0" dy="4" stdDeviation="6" flood-color="#000" flood-opacity="0.5"/>
    </filter>
    
    <filter id="glow">
      <feGaussianBlur stdDeviation="3" result="coloredBlur"/>
      <feMerge>
        <feMergeNode in="coloredBlur"/>
        <feMergeNode in="SourceGraphic"/>
      </feMerge>
    </filter>
  </defs>
  
  <!-- Background -->
  <rect width="1400" height="600" fill="url(#bgGrad)"/>
  
  <!-- Grid pattern -->
  <defs>
    <pattern id="grid" width="30" height="30" patternUnits="userSpaceOnUse">
      <path d="M 30 0 L 0 0 0 30" fill="none" stroke="#fff" stroke-width="0.3" opacity="0.05"/>
    </pattern>
  </defs>
  <rect width="1400" height="600" fill="url(#grid)"/>
  
  <!-- Title -->
  <text x="700" y="40" text-anchor="middle" fill="#f8fafc" font-size="24" font-weight="700" letter-spacing="1">
    RESUME ANALYSIS FLOW
  </text>
  <text x="700" y="65" text-anchor="middle" fill="#94a3b8" font-size="12">
    ML Service Processing Pipeline: PDF → Text → Vectors → Scores → Predictions
  </text>
  
  <!-- Pipeline progress bar -->
  <rect x="100" y="85" width="1200" height="6" rx="3" fill="#1e293b"/>
  <rect x="100" y="85" width="1200" height="6" rx="3" fill="url(#pipelineGrad)" opacity="0.7"/>
  
  <!-- ============ STAGE 1: INPUT ============ -->
  <g transform="translate(50, 120)" filter="url(#dropShadow)">
    <rect x="0" y="0" width="180" height="200" rx="14" fill="#0f172a" stroke="#3b82f6" stroke-width="2"/>
    
    <!-- Header -->
    <rect x="0" y="0" width="180" height="40" rx="14" fill="url(#inputGrad)"/>
    <rect x="0" y="25" width="180" height="15" fill="url(#inputGrad)"/>
    <text x="90" y="27" text-anchor="middle" fill="#fff" font-size="12" font-weight="700">1. INPUT</text>
    
    <!-- Resume icon -->
    <rect x="30" y="55" width="50" height="65" rx="4" fill="#1e3a5f" stroke="#60a5fa" stroke-width="1"/>
    <rect x="35" y="62" width="30" height="3" rx="1" fill="#60a5fa"/>
    <rect x="35" y="70" width="40" height="2" rx="1" fill="#475569"/>
    <rect x="35" y="76" width="35" height="2" rx="1" fill="#475569"/>
    <rect x="35" y="82" width="40" height="2" rx="1" fill="#475569"/>
    <rect x="35" y="88" width="30" height="2" rx="1" fill="#475569"/>
    <rect x="35" y="94" width="38" height="2" rx="1" fill="#475569"/>
    <rect x="35" y="100" width="35" height="2" rx="1" fill="#475569"/>
    <rect x="35" y="106" width="25" height="2" rx="1" fill="#475569"/>
    <text x="55" y="135" text-anchor="middle" fill="#60a5fa" font-size="9" font-weight="500">Resume.pdf</text>
    
    <!-- Job description icon -->
    <rect x="100" y="55" width="50" height="65" rx="4" fill="#1e3a5f" stroke="#60a5fa" stroke-width="1"/>
    <rect x="105" y="62" width="35" height="3" rx="1" fill="#fbbf24"/>
    <rect x="105" y="70" width="40" height="2" rx="1" fill="#475569"/>
    <rect x="105" y="76" width="30" height="2" rx="1" fill="#475569"/>
    <rect x="105" y="82" width="40" height="2" rx="1" fill="#475569"/>
    <rect x="105" y="88" width="35" height="2" rx="1" fill="#475569"/>
    <rect x="105" y="94" width="40" height="2" rx="1" fill="#475569"/>
    <rect x="105" y="100" width="25" height="2" rx="1" fill="#475569"/>
    <rect x="105" y="106" width="38" height="2" rx="1" fill="#475569"/>
    <text x="125" y="135" text-anchor="middle" fill="#fbbf24" font-size="9" font-weight="500">Job Desc</text>
    
    <!-- Source labels -->
    <text x="55" y="160" text-anchor="middle" fill="#64748b" font-size="8">Supabase</text>
    <text x="55" y="172" text-anchor="middle" fill="#64748b" font-size="8">Storage</text>
    <text x="125" y="160" text-anchor="middle" fill="#64748b" font-size="8">jobs</text>
    <text x="125" y="172" text-anchor="middle" fill="#64748b" font-size="8">table</text>
  </g>
  
  <!-- Arrow 1→2 -->
  <path d="M230 220 L270 220" stroke="#94a3b8" stroke-width="2.5" fill="none" marker-end="url(#arrowWhite)"/>
  
  <!-- ============ STAGE 2: PDF EXTRACTION ============ -->
  <g transform="translate(280, 120)" filter="url(#dropShadow)">
    <rect x="0" y="0" width="160" height="200" rx="14" fill="#0f172a" stroke="#8b5cf6" stroke-width="2"/>
    
    <!-- Header -->
    <rect x="0" y="0" width="160" height="40" rx="14" fill="url(#extractGrad)"/>
    <rect x="0" y="25" width="160" height="15" fill="url(#extractGrad)"/>
    <text x="80" y="27" text-anchor="middle" fill="#fff" font-size="11" font-weight="700">2. EXTRACTION</text>
    
    <!-- Code block -->
    <rect x="15" y="50" width="130" height="80" rx="6" fill="#1a1333" stroke="#4c1d95" stroke-width="1"/>
    <text x="25" y="68" fill="#c4b5fd" font-size="8" font-family="monospace">PyPDF2.PdfReader()</text>
    <text x="25" y="82" fill="#c4b5fd" font-size="8" font-family="monospace">pdfplumber.open()</text>
    <text x="25" y="96" fill="#64748b" font-size="8" font-family="monospace"># extract_text()</text>
    <text x="25" y="110" fill="#64748b" font-size="8" font-family="monospace"># page iteration</text>
    <text x="25" y="124" fill="#64748b" font-size="8" font-family="monospace"># encoding handle</text>
    
    <!-- Output preview -->
    <text x="80" y="150" text-anchor="middle" fill="#a78bfa" font-size="9" font-weight="500">Output:</text>
    <rect x="15" y="158" width="130" height="30" rx="4" fill="#1e1b4b"/>
    <text x="80" y="175" text-anchor="middle" fill="#e9d5ff" font-size="7" font-family="monospace">"John Doe\nExperience..."</text>
  </g>
  
  <!-- Arrow 2→3 -->
  <path d="M440 220 L480 220" stroke="#94a3b8" stroke-width="2.5" fill="none" marker-end="url(#arrowWhite)"/>
  
  <!-- ============ STAGE 3: PREPROCESSING ============ -->
  <g transform="translate(490, 120)" filter="url(#dropShadow)">
    <rect x="0" y="0" width="160" height="200" rx="14" fill="#0f172a" stroke="#06b6d4" stroke-width="2"/>
    
    <!-- Header -->
    <rect x="0" y="0" width="160" height="40" rx="14" fill="url(#preprocessGrad)"/>
    <rect x="0" y="25" width="160" height="15" fill="url(#preprocessGrad)"/>
    <text x="80" y="27" text-anchor="middle" fill="#fff" font-size="11" font-weight="700">3. PREPROCESS</text>
    
    <!-- Processing steps -->
    <g transform="translate(15, 50)">
      <rect x="0" y="0" width="130" height="22" rx="4" fill="#164e63"/>
      <text x="65" y="15" text-anchor="middle" fill="#67e8f9" font-size="9">Tokenization (NLTK)</text>
    </g>
    <text x="80" y="82" text-anchor="middle" fill="#475569" font-size="12">↓</text>
    
    <g transform="translate(15, 88)">
      <rect x="0" y="0" width="130" height="22" rx="4" fill="#164e63"/>
      <text x="65" y="15" text-anchor="middle" fill="#67e8f9" font-size="9">Stopword Removal</text>
    </g>
    <text x="80" y="120" text-anchor="middle" fill="#475569" font-size="12">↓</text>
    
    <g transform="translate(15, 126)">
      <rect x="0" y="0" width="130" height="22" rx="4" fill="#164e63"/>
      <text x="65" y="15" text-anchor="middle" fill="#67e8f9" font-size="9">Stemming/Lemma</text>
    </g>
    <text x="80" y="158" text-anchor="middle" fill="#475569" font-size="12">↓</text>
    
    <g transform="translate(15, 164)">
      <rect x="0" y="0" width="130" height="22" rx="4" fill="#164e63"/>
      <text x="65" y="15" text-anchor="middle" fill="#67e8f9" font-size="9">Lowercasing</text>
    </g>
  </g>
  
  <!-- Arrow 3→4 -->
  <path d="M650 220 L690 220" stroke="#94a3b8" stroke-width="2.5" fill="none" marker-end="url(#arrowWhite)"/>
  
  <!-- ============ STAGE 4: VECTORIZATION ============ -->
  <g transform="translate(700, 120)" filter="url(#dropShadow)">
    <rect x="0" y="0" width="160" height="200" rx="14" fill="#0f172a" stroke="#f59e0b" stroke-width="2"/>
    
    <!-- Header -->
    <rect x="0" y="0" width="160" height="40" rx="14" fill="url(#vectorGrad)"/>
    <rect x="0" y="25" width="160" height="15" fill="url(#vectorGrad)"/>
    <text x="80" y="27" text-anchor="middle" fill="#fff" font-size="11" font-weight="700">4. VECTORIZE</text>
    
    <!-- TF-IDF explanation -->
    <text x="80" y="60" text-anchor="middle" fill="#fcd34d" font-size="10" font-weight="600">TF-IDF</text>
    <text x="80" y="75" text-anchor="middle" fill="#64748b" font-size="8">Term Frequency × Inverse</text>
    <text x="80" y="87" text-anchor="middle" fill="#64748b" font-size="8">Document Frequency</text>
    
    <!-- Vector visualization -->
    <rect x="20" y="100" width="120" height="50" rx="6" fill="#451a03" stroke="#b45309" stroke-width="1"/>
    <text x="80" y="118" text-anchor="middle" fill="#fbbf24" font-size="8" font-family="monospace">[0.12, 0.45, 0.03,</text>
    <text x="80" y="132" text-anchor="middle" fill="#fbbf24" font-size="8" font-family="monospace"> 0.78, 0.22, ...]</text>
    <text x="80" y="145" text-anchor="middle" fill="#92400e" font-size="7">n-dimensional vector</text>
    
    <!-- Scikit-learn badge -->
    <rect x="30" y="160" width="100" height="25" rx="5" fill="#1e293b" stroke="#f59e0b" stroke-width="1"/>
    <text x="80" y="177" text-anchor="middle" fill="#fbbf24" font-size="9">scikit-learn</text>
  </g>
  
  <!-- Arrow 4→5 (splits into two paths) -->
  <path d="M860 180 L900 180 Q930 180 930 150 L930 130 Q930 110 960 110 L980 110" stroke="#94a3b8" stroke-width="2" fill="none" marker-end="url(#arrowWhite)"/>
  <path d="M860 260 L900 260 Q930 260 930 290 L930 310 Q930 330 960 330 L980 330" stroke="#94a3b8" stroke-width="2" fill="none" marker-end="url(#arrowWhite)"/>
  <text x="920" y="220" fill="#64748b" font-size="9" font-weight="500">Parallel</text>
  
  <!-- ============ STAGE 5A: ATS SCORING ============ -->
  <g transform="translate(990, 80)" filter="url(#dropShadow)">
    <rect x="0" y="0" width="180" height="140" rx="14" fill="#0f172a" stroke="#10b981" stroke-width="2"/>
    
    <!-- Header -->
    <rect x="0" y="0" width="180" height="40" rx="14" fill="url(#scoreGrad)"/>
    <rect x="0" y="25" width="180" height="15" fill="url(#scoreGrad)"/>
    <text x="90" y="27" text-anchor="middle" fill="#fff" font-size="11" font-weight="700">5A. ATS SCORING</text>
    
    <!-- Cosine similarity formula -->
    <rect x="15" y="50" width="150" height="35" rx="6" fill="#052e16" stroke="#166534" stroke-width="1"/>
    <text x="90" y="65" text-anchor="middle" fill="#4ade80" font-size="9" font-weight="600">Cosine Similarity</text>
    <text x="90" y="78" text-anchor="middle" fill="#86efac" font-size="8">cos(θ) = A·B / ||A|| ||B||</text>
    
    <!-- Score gauge -->
    <rect x="40" y="95" width="100" height="30" rx="6" fill="#0d1117"/>
    <rect x="45" y="100" width="72" height="20" rx="4" fill="#059669"/>
    <text x="90" y="115" text-anchor="middle" fill="#fff" font-size="11" font-weight="700">78.5%</text>
    <text x="90" y="135" text-anchor="middle" fill="#4ade80" font-size="8">Match Score</text>
  </g>
  
  <!-- ============ STAGE 5B: CATEGORY PREDICTION ============ -->
  <g transform="translate(990, 250)" filter="url(#dropShadow)">
    <rect x="0" y="0" width="180" height="160" rx="14" fill="#0f172a" stroke="#ec4899" stroke-width="2"/>
    
    <!-- Header -->
    <rect x="0" y="0" width="180" height="40" rx="14" fill="url(#predictGrad)"/>
    <rect x="0" y="25" width="180" height="15" fill="url(#predictGrad)"/>
    <text x="90" y="27" text-anchor="middle" fill="#fff" font-size="11" font-weight="700">5B. PREDICTION</text>
    
    <!-- Classification model -->
    <text x="90" y="58" text-anchor="middle" fill="#f9a8d4" font-size="9" font-weight="500">Classification Model</text>
    
    <!-- Category output -->
    <rect x="20" y="68" width="140" height="45" rx="6" fill="#4a044e" stroke="#a21caf" stroke-width="1"/>
    <text x="90" y="85" text-anchor="middle" fill="#f0abfc" font-size="8">Predicted Category:</text>
    <text x="90" y="102" text-anchor="middle" fill="#fff" font-size="12" font-weight="700">"Software Engineer"</text>
    
    <!-- Confidence -->
    <rect x="20" y="120" width="140" height="30" rx="6" fill="#0d1117"/>
    <text x="50" y="138" fill="#fbbf24" font-size="9">Confidence:</text>
    <text x="130" y="138" text-anchor="middle" fill="#fff" font-size="11" font-weight="700">85.2%</text>
  </g>
  
  <!-- Merge arrows to output -->
  <path d="M1170 150 L1200 150 Q1220 150 1220 180 L1220 220" stroke="#4ade80" stroke-width="2" fill="none"/>
  <path d="M1170 330 L1200 330 Q1220 330 1220 300 L1220 260" stroke="#f472b6" stroke-width="2" fill="none"/>
  <circle cx="1220" cy="240" r="8" fill="#0f172a" stroke="#94a3b8" stroke-width="2"/>
  <path d="M1228 240 L1260 240" stroke="#4ade80" stroke-width="2.5" fill="none" marker-end="url(#arrowGreen)"/>
  
  <!-- ============ STAGE 6: OUTPUT ============ -->
  <g transform="translate(1270, 150)" filter="url(#dropShadow)">
    <rect x="0" y="0" width="110" height="180" rx="14" fill="#0f172a" stroke="#ef4444" stroke-width="2"/>
    
    <!-- Header -->
    <rect x="0" y="0" width="110" height="40" rx="14" fill="url(#outputGrad)"/>
    <rect x="0" y="25" width="110" height="15" fill="url(#outputGrad)"/>
    <text x="55" y="27" text-anchor="middle" fill="#fff" font-size="11" font-weight="700">OUTPUT</text>
    
    <!-- JSON response -->
    <rect x="10" y="50" width="90" height="120" rx="6" fill="#1c1917" stroke="#7f1d1d" stroke-width="1"/>
    <text x="20" y="68" fill="#64748b" font-size="7" font-family="monospace">{</text>
    <text x="25" y="82" fill="#4ade80" font-size="7" font-family="monospace">"ats_score":</text>
    <text x="70" y="92" fill="#fff" font-size="7" font-family="monospace">78.5,</text>
    <text x="25" y="106" fill="#38bdf8" font-size="7" font-family="monospace">"category":</text>
    <text x="30" y="116" fill="#fff" font-size="6" font-family="monospace">"Software..",</text>
    <text x="25" y="130" fill="#fbbf24" font-size="7" font-family="monospace">"confidence":</text>
    <text x="70" y="140" fill="#fff" font-size="7" font-family="monospace">85.2,</text>
    <text x="25" y="154" fill="#a78bfa" font-size="7" font-family="monospace">"success":</text>
    <text x="70" y="154" fill="#4ade80" font-size="7" font-family="monospace">true</text>
    <text x="20" y="166" fill="#64748b" font-size="7" font-family="monospace">}</text>
  </g>
  
  <!-- ============ BOTTOM SECTION: DATA FLOW SUMMARY ============ -->
  <g transform="translate(50, 450)">
    <rect x="0" y="0" width="1300" height="120" rx="12" fill="#0f172a" stroke="#334155" stroke-width="1"/>
    
    <text x="650" y="25" text-anchor="middle" fill="#f8fafc" font-size="13" font-weight="600">DATA FLOW SUMMARY</text>
    <line x1="100" y1="35" x2="1200" y2="35" stroke="#334155" stroke-width="1"/>
    
    <!-- Flow boxes -->
    <g transform="translate(30, 50)">
      <rect x="0" y="0" width="150" height="55" rx="8" fill="#1e3a5f" stroke="#3b82f6" stroke-width="1"/>
      <text x="75" y="20" text-anchor="middle" fill="#60a5fa" font-size="10" font-weight="600">API Request</text>
      <text x="75" y="35" text-anchor="middle" fill="#94a3b8" font-size="8">multipart/form-data</text>
      <text x="75" y="48" text-anchor="middle" fill="#64748b" font-size="7">resume + job_description</text>
    </g>
    
    <path d="M185 77 L220 77" stroke="#94a3b8" stroke-width="1.5" fill="none" marker-end="url(#arrowWhite)"/>
    
    <g transform="translate(225, 50)">
      <rect x="0" y="0" width="150" height="55" rx="8" fill="#2e1065" stroke="#8b5cf6" stroke-width="1"/>
      <text x="75" y="20" text-anchor="middle" fill="#a78bfa" font-size="10" font-weight="600">Text Extraction</text>
      <text x="75" y="35" text-anchor="middle" fill="#94a3b8" font-size="8">PyPDF2 / pdfplumber</text>
      <text x="75" y="48" text-anchor="middle" fill="#64748b" font-size="7">raw text output</text>
    </g>
    
    <path d="M380 77 L415 77" stroke="#94a3b8" stroke-width="1.5" fill="none" marker-end="url(#arrowWhite)"/>
    
    <g transform="translate(420, 50)">
      <rect x="0" y="0" width="150" height="55" rx="8" fill="#083344" stroke="#06b6d4" stroke-width="1"/>
      <text x="75" y="20" text-anchor="middle" fill="#22d3ee" font-size="10" font-weight="600">NLP Pipeline</text>
      <text x="75" y="35" text-anchor="middle" fill="#94a3b8" font-size="8">NLTK preprocessing</text>
      <text x="75" y="48" text-anchor="middle" fill="#64748b" font-size="7">clean token list</text>
    </g>
    
    <path d="M575 77 L610 77" stroke="#94a3b8" stroke-width="1.5" fill="none" marker-end="url(#arrowWhite)"/>
    
    <g transform="translate(615, 50)">
      <rect x="0" y="0" width="150" height="55" rx="8" fill="#451a03" stroke="#f59e0b" stroke-width="1"/>
      <text x="75" y="20" text-anchor="middle" fill="#fbbf24" font-size="10" font-weight="600">Vectorization</text>
      <text x="75" y="35" text-anchor="middle" fill="#94a3b8" font-size="8">TF-IDF transform</text>
      <text x="75" y="48" text-anchor="middle" fill="#64748b" font-size="7">sparse vectors</text>
    </g>
    
    <path d="M770 77 L805 77" stroke="#94a3b8" stroke-width="1.5" fill="none" marker-end="url(#arrowWhite)"/>
    
    <g transform="translate(810, 50)">
      <rect x="0" y="0" width="150" height="55" rx="8" fill="#052e16" stroke="#10b981" stroke-width="1"/>
      <text x="75" y="20" text-anchor="middle" fill="#4ade80" font-size="10" font-weight="600">ML Analysis</text>
      <text x="75" y="35" text-anchor="middle" fill="#94a3b8" font-size="8">Cosine + Classification</text>
      <text x="75" y="48" text-anchor="middle" fill="#64748b" font-size="7">scores + category</text>
    </g>
    
    <path d="M965 77 L1000 77" stroke="#94a3b8" stroke-width="1.5" fill="none" marker-end="url(#arrowWhite)"/>
    
    <g transform="translate(1005, 50)">
      <rect x="0" y="0" width="150" height="55" rx="8" fill="#450a0a" stroke="#ef4444" stroke-width="1"/>
      <text x="75" y="20" text-anchor="middle" fill="#f87171" font-size="10" font-weight="600">JSON Response</text>
      <text x="75" y="35" text-anchor="middle" fill="#94a3b8" font-size="8">Return to frontend</text>
      <text x="75" y="48" text-anchor="middle" fill="#64748b" font-size="7">store in applications</text>
    </g>
    
    <!-- Timing info -->
    <text x="1220" y="85" fill="#64748b" font-size="9">Total: ~1.5s</text>
  </g>
  
</svg>
